<svg width="60" height="54" viewBox="0 0 60 54" fill="none" xmlns="http://www.w3.org/2000/svg">
<path d="M11.375 52.1876C11.375 52.4528 11.2696 52.7072 11.0821 52.8947C10.8946 53.0823 10.6402 53.1876 10.375 53.1876H1C0.734784 53.1876 0.48043 53.0823 0.292893 52.8947C0.105357 52.7072 0 52.4528 0 52.1876C0 51.9224 0.105357 51.668 0.292893 51.4805C0.48043 51.293 0.734784 51.1876 1 51.1876H10.375C10.6402 51.1876 10.8946 51.293 11.0821 51.4805C11.2696 51.668 11.375 51.9224 11.375 52.1876ZM23.25 8.06262C27.1098 8.06262 30.25 11.2029 30.25 15.0626V16.8126C30.25 17.0778 30.1446 17.3322 29.9571 17.5197C29.7696 17.7073 29.5152 17.8126 29.25 17.8126H17.25C16.9848 17.8126 16.7304 17.7073 16.5429 17.5197C16.3554 17.3322 16.25 17.0778 16.25 16.8126V15.0626C16.25 11.2029 19.3902 8.06262 23.25 8.06262ZM18.25 15.0626V15.8126H28.25V15.0626C28.25 12.3056 26.007 10.0626 23.25 10.0626C20.493 10.0626 18.25 12.3056 18.25 15.0626ZM8.3125 49.1876C8.44394 49.1876 8.57409 49.1617 8.6955 49.1114C8.81692 49.061 8.92722 48.9872 9.02009 48.8942C9.11297 48.8012 9.1866 48.6908 9.23677 48.5693C9.28695 48.4479 9.31268 48.3177 9.3125 48.1862L9.26 9.10187C9.25537 5.62712 12.0659 2.81262 15.5409 2.81262H15.9692C17.9743 2.81262 19.8119 3.73637 21.0109 5.34699C21.1711 5.55472 21.4064 5.6912 21.6663 5.72703C21.9261 5.76285 22.1897 5.69515 22.4001 5.53852C22.6105 5.38188 22.751 5.14884 22.7912 4.88963C22.8314 4.63042 22.7682 4.36578 22.6151 4.15274C21.0581 2.06137 18.5736 0.812744 15.9692 0.812744H15.5409C10.9598 0.812744 7.25388 4.52312 7.26 9.10462L7.3125 48.189C7.31286 48.454 7.41838 48.708 7.60588 48.8952C7.79338 49.0825 8.04752 49.1876 8.3125 49.1876ZM55.5 35.5626V29.0422C55.5 26.0897 53.0979 23.6876 50.1454 23.6876H22.8546C19.9021 23.6876 17.5 26.0897 17.5 29.0422V31.4376C17.5 31.7028 17.6054 31.9572 17.7929 32.1447C17.9804 32.3323 18.2348 32.4376 18.5 32.4376C18.7652 32.4376 19.0196 32.3323 19.2071 32.1447C19.3946 31.9572 19.5 31.7028 19.5 31.4376V29.0422C19.5 27.1925 21.0049 25.6876 22.8546 25.6876H35.625V36.9376C35.625 37.2028 35.7304 37.4572 35.9179 37.6447C36.1054 37.8323 36.3598 37.9376 36.625 37.9376C36.8902 37.9376 37.1446 37.8323 37.3321 37.6447C37.5196 37.4572 37.625 37.2028 37.625 36.9376V25.6876H50.1454C51.9951 25.6876 53.5 27.1925 53.5 29.0422V35.5891C51.2544 35.8311 49.5 37.7374 49.5 40.0464V40.9376C49.5 41.2028 49.6054 41.4572 49.7929 41.6447C49.9804 41.8323 50.2348 41.9376 50.5 41.9376C50.7652 41.9376 51.0196 41.8323 51.2071 41.6447C51.3946 41.4572 51.5 41.2028 51.5 40.9376V40.0464C51.5 38.6769 52.6141 37.5626 53.9836 37.5626H55.5164C56.8859 37.5626 58 38.6769 58 40.0464V48.704C58 50.0735 56.8859 51.1877 55.5164 51.1877H51.5C51.5 44.6427 51.5049 45.0455 51.4914 44.9377C51.5676 44.3271 51.0901 43.8127 50.5 43.8127H28.125C27.8598 43.8127 27.6054 43.9181 27.4179 44.1056C27.2304 44.2932 27.125 44.5475 27.125 44.8127C27.125 45.078 27.2304 45.3323 27.4179 45.5199C27.6054 45.7074 27.8598 45.8127 28.125 45.8127H49.5V52.1877C49.5 52.453 49.6054 52.7073 49.7929 52.8949C49.9804 53.0824 50.2348 53.1877 50.5 53.1877H55.5164C57.9886 53.1877 60 51.1764 60 48.704V40.0464C60 37.6064 58.0276 35.5626 55.5 35.5626ZM45.375 51.1876H17.7337C16.3643 51.1876 15.25 50.0734 15.25 48.7039V40.0464C15.25 38.6769 16.3643 37.5626 17.7337 37.5626H19.2664C20.6359 37.5626 21.7501 38.6769 21.7501 40.0464V45.6876C21.7501 45.9528 21.8555 46.2072 22.043 46.3947C22.2306 46.5823 22.4849 46.6876 22.7501 46.6876C23.0153 46.6876 23.2697 46.5823 23.4572 46.3947C23.6448 46.2072 23.7501 45.9528 23.7501 45.6876V40.0464C23.7501 37.574 21.7388 35.5626 19.2664 35.5626H17.7337C15.2614 35.5626 13.25 37.574 13.25 40.0464V48.704C13.25 51.1764 15.2614 53.1877 17.7337 53.1877H45.375C45.6402 53.1877 45.8946 53.0824 46.0821 52.8948C46.2697 52.7073 46.3751 52.4529 46.3751 52.1877C46.3751 51.9224 46.2697 51.6681 46.0821 51.4805C45.8946 51.293 45.6402 51.1876 45.375 51.1876Z" fill="#6BA6FF"/>
</svg>
