<svg width="56" height="60" viewBox="0 0 56 60" fill="none" xmlns="http://www.w3.org/2000/svg">
<path d="M44.1908 39.6763C48.4258 34.6215 50.0182 27.9714 48.6334 21.6252C50.1409 21.3748 51.441 21.5972 52.215 22.2649C53.9099 23.7272 53.606 28.4853 51.3726 30.6528C51.1823 30.8374 51.0731 31.0901 51.0691 31.3553C51.0651 31.6204 51.1666 31.8763 51.3513 32.0666C51.536 32.2569 51.7887 32.3661 52.0538 32.37C52.319 32.374 52.5748 32.2725 52.7651 32.0879C55.6339 29.3037 56.3103 23.1576 53.5215 20.751C52.2429 19.6478 50.3061 19.2751 48.1116 19.6851C45.5401 11.6811 38.3152 5.74336 29.6365 5.07437C30.9011 2.54564 28.7257 -0.238546 25.9086 0.0162768C25.7779 0.0281014 25.6507 0.0655657 25.5344 0.126531C25.4181 0.187496 25.315 0.270767 25.2309 0.371591C25.1468 0.472415 25.0834 0.588817 25.0443 0.71415C25.0052 0.839483 24.9911 0.971293 25.0029 1.10206C25.0527 1.65182 25.5377 2.05561 26.0887 2.00775C26.5927 1.96175 27.0768 2.1141 27.4531 2.43516C28.4435 3.28011 27.9977 4.61596 26.8602 5.042C13.5891 5.75036 4.1327 18.5509 7.57637 31.5496C3.05992 32.4313 1.40826 24.3126 3.78152 22.2649C4.01622 22.0623 4.29942 21.8983 4.6231 21.7776C4.8688 21.6829 5.06723 21.4951 5.17531 21.255C5.28339 21.0149 5.29239 20.7419 5.20036 20.4952C5.10833 20.2485 4.9227 20.0481 4.68377 19.9374C4.44485 19.8268 4.17191 19.8148 3.92424 19.9042C3.37748 20.1082 2.88995 20.3931 2.47504 20.751C-1.39792 24.0927 1.32377 35.0544 8.183 33.4614C8.46155 34.2117 8.78233 34.9456 9.1438 35.6596C9.26357 35.8962 9.47242 36.0755 9.72439 36.1581C9.97637 36.2407 10.2508 36.2198 10.4874 36.1C10.724 35.9803 10.9033 35.7714 10.9859 35.5194C11.0685 35.2675 11.0476 34.993 10.9278 34.7564C10.4911 33.8944 10.1206 33.0005 9.81929 32.0824C9.80449 31.9618 9.76741 31.8451 9.70994 31.7382C5.94283 19.4646 15.1806 7.01085 27.9983 7.01085C38.5417 7.01085 47.1194 15.5886 47.1194 26.1319C47.1194 36.6753 38.5417 45.253 27.9983 45.253C22.7227 45.253 17.6298 43.0414 14.0257 39.185C13.6458 38.7786 12.9966 38.754 12.5885 39.1622C6.08693 43.223 2.12861 50.354 2.12861 58.0289V59.0001C2.12861 59.2653 2.23395 59.5196 2.42144 59.7071C2.60894 59.8946 2.86324 59.9999 3.12841 59.9999C3.39357 59.9999 3.64787 59.8946 3.83537 59.7071C4.02287 59.5196 4.1282 59.2653 4.1282 59.0001V58.0289C4.1282 51.2881 7.5755 44.8882 13.1672 41.1665C13.6626 41.6545 14.1819 42.1176 14.7232 42.5541L13.9556 52.0485C13.7154 55.0187 15.6458 57.6766 18.5458 58.3686C24.625 59.8196 31.1692 59.8684 37.4688 58.3636C40.3582 57.6733 42.281 55.0172 42.0408 52.0479L41.635 47.0277C41.5907 46.4774 41.1072 46.0641 40.558 46.1117C40.4271 46.1223 40.2996 46.1585 40.1828 46.2184C40.0659 46.2782 39.962 46.3605 39.8769 46.4605C39.7919 46.5605 39.7273 46.6763 39.687 46.8013C39.6468 46.9262 39.6315 47.0579 39.6421 47.1888L40.0479 52.209C40.208 54.1887 38.9278 55.9591 37.0042 56.4188C31.1142 57.826 24.8918 57.8275 19.0102 56.4238C17.0761 55.9622 15.7887 54.19 15.9488 52.2096L16.6192 43.9174C24.8931 49.1986 35.7324 48.1544 42.8218 41.1611C48.4182 44.8821 51.8686 51.2849 51.8686 58.0289V59.0001C51.8686 59.2653 51.9739 59.5196 52.1614 59.7071C52.3489 59.8946 52.6032 59.9999 52.8684 59.9999C53.1335 59.9999 53.3878 59.8946 53.5753 59.7071C53.7628 59.5196 53.8682 59.2653 53.8682 59.0001V58.0289C53.868 50.8985 50.4232 43.9476 44.1908 39.6763Z" fill="#6BA6FF"/>
<path d="M23.6243 22.2578C23.3591 22.2578 23.1048 22.3631 22.9173 22.5506C22.7298 22.7381 22.6245 22.9924 22.6245 23.2576V25.6321C22.6245 25.8973 22.7298 26.1516 22.9173 26.3391C23.1048 26.5266 23.3591 26.6319 23.6243 26.6319C23.8895 26.6319 24.1438 26.5266 24.3313 26.3391C24.5188 26.1516 24.6241 25.8973 24.6241 25.6321V23.2576C24.6241 22.9924 24.5188 22.7381 24.3313 22.5506C24.1438 22.3631 23.8895 22.2578 23.6243 22.2578ZM33.3723 25.6321V23.2576C33.3723 22.9924 33.267 22.7381 33.0795 22.5506C32.892 22.3631 32.6377 22.2578 32.3725 22.2578C32.1074 22.2578 31.8531 22.3631 31.6656 22.5506C31.4781 22.7381 31.3727 22.9924 31.3727 23.2576V25.6321C31.3727 25.8973 31.4781 26.1516 31.6656 26.3391C31.8531 26.5266 32.1074 26.6319 32.3725 26.6319C32.6377 26.6319 32.892 26.5266 33.0795 26.3391C33.267 26.1516 33.3723 25.8973 33.3723 25.6321ZM30.3843 31.1787C29.0689 32.4943 26.928 32.4943 25.6125 31.1787C25.425 30.9912 25.1707 30.8859 24.9055 30.8859C24.6404 30.8859 24.3861 30.9912 24.1986 31.1787C24.0111 31.3662 23.9057 31.6206 23.9057 31.8857C23.9057 32.1509 24.0111 32.4052 24.1986 32.5927C26.2989 34.6928 29.6978 34.6929 31.7984 32.5927C31.9859 32.4052 32.0912 32.1509 32.0912 31.8857C32.0912 31.6205 31.9858 31.3662 31.7983 31.1787C31.6108 30.9912 31.3565 30.8858 31.0913 30.8859C30.8261 30.8859 30.5718 30.9912 30.3843 31.1787ZM25.9988 51.1269C25.7337 51.1269 25.4794 51.2323 25.2919 51.4198C25.1044 51.6072 24.999 51.8616 24.999 52.1267C24.999 52.3919 25.1044 52.6462 25.2919 52.8337C25.4794 53.0212 25.7337 53.1265 25.9988 53.1265H29.998C30.2632 53.1265 30.5175 53.0212 30.705 52.8337C30.8925 52.6462 30.9978 52.3919 30.9978 52.1267C30.9978 51.8616 30.8925 51.6072 30.705 51.4198C30.5175 51.2323 30.2632 51.1269 29.998 51.1269H25.9988Z" fill="#6BA6FF"/>
</svg>
