<svg width="60" height="60" viewBox="0 0 60 60" fill="none" xmlns="http://www.w3.org/2000/svg">
<g clip-path="url(#clip0_2318_1176)">
<path d="M41.3228 44.6776C41.5379 44.8328 41.8058 44.8961 42.0676 44.8538C42.3294 44.8115 42.5637 44.6669 42.7189 44.4519C44.947 41.364 46.1248 37.7129 46.1248 33.8933C46.1248 23.9335 38.022 15.8308 28.0623 15.8308C18.1026 15.8308 9.99985 23.9335 9.99985 33.8933C9.99985 43.853 18.1026 51.9557 28.0623 51.9557C31.2489 51.9557 34.3794 51.1141 37.1202 49.5226C37.7244 49.217 37.8563 48.3954 37.3675 47.9187C37.2717 47.8241 37.6233 48.0687 32.9378 44.9346C32.7522 44.8099 32.6059 44.635 32.5159 44.4303C32.426 44.2256 32.3961 43.9995 32.4298 43.7785L33.1157 39.3363C33.1472 39.1327 33.2315 38.941 33.3603 38.7803L35.638 35.9405C36.3927 34.9996 36.5505 33.7335 36.05 32.6362L33.7654 27.628C33.6739 27.4292 33.64 27.2087 33.6677 26.9916C33.6954 26.7746 33.7835 26.5696 33.922 26.4002L35.2219 24.7977C35.389 24.5917 35.4674 24.3278 35.4399 24.064C35.4124 23.8002 35.2813 23.5581 35.0753 23.391C34.8693 23.224 34.6054 23.1455 34.3416 23.173C34.0778 23.2005 33.8358 23.3317 33.6687 23.5377L32.3688 25.1402C31.6043 26.0827 31.4422 27.354 31.9458 28.4582L34.2304 33.4663C34.3214 33.6641 34.3553 33.8833 34.3283 34.0994C34.3014 34.3154 34.2147 34.5196 34.0779 34.689L31.8002 37.5289C31.4522 37.9632 31.2242 38.4811 31.1391 39.031L30.4532 43.4734C30.2657 44.6877 30.8046 45.9137 31.8259 46.5971L34.7032 48.5214C32.6169 49.4671 30.3527 49.9561 28.0622 49.9557C16.8092 49.9557 9.05697 38.6364 13.051 28.1792L14.1181 29.3305C15.4122 30.7273 17.6595 30.6838 18.8907 29.1993L21.4963 26.0577C21.6532 25.8682 21.8657 25.7328 22.1037 25.6707C22.3418 25.6085 22.5933 25.6227 22.8228 25.7112L23.2821 25.8879C23.7706 26.0759 24.0781 26.5713 24.0301 27.0925L23.6876 30.8073C23.6638 31.0588 23.5601 31.2962 23.3917 31.4845L20.8298 34.3371C19.6082 35.6973 19.7868 37.8118 21.2204 38.9474L23.8761 41.0511C24.0288 41.1718 24.1491 41.3287 24.2261 41.5075C24.3031 41.6864 24.3342 41.8816 24.3168 42.0755L24.1937 43.4698C24.1806 43.6013 24.1938 43.7342 24.2324 43.8607C24.2711 43.9871 24.3344 44.1046 24.4188 44.2065C24.5031 44.3083 24.6069 44.3924 24.7239 44.4538C24.841 44.5153 24.9691 44.5529 25.1008 44.5646C25.2325 44.5762 25.3652 44.5616 25.4913 44.5216C25.6173 44.4816 25.7341 44.417 25.835 44.3316C25.936 44.2461 26.0189 44.1415 26.0791 44.0238C26.1393 43.9061 26.1756 43.7776 26.1858 43.6458L26.3091 42.2515C26.3561 41.7275 26.2719 41.2 26.0639 40.7167C25.8559 40.2334 25.5308 39.8095 25.1179 39.4834L22.4624 37.3796C21.9318 36.9593 21.8638 36.1789 22.3179 35.6735L24.8798 32.8209C25.335 32.3119 25.6152 31.6706 25.6793 30.9908L26.0218 27.276C26.1517 25.8677 25.3204 24.5293 24.0007 24.0214L23.5416 23.8447C22.9214 23.6054 22.2416 23.5671 21.5985 23.7351C20.9553 23.903 20.3811 24.2688 19.9571 24.7808L17.3515 27.9224C16.8911 28.4778 16.06 28.4834 15.5852 27.971L13.9573 26.2147C16.6852 21.2237 21.9848 17.8308 28.0623 17.8308C36.9192 17.8308 44.1248 25.0364 44.1248 33.8933C44.1248 37.2901 43.0778 40.5365 41.097 43.2814C40.9419 43.4965 40.8785 43.7644 40.9208 44.0262C40.9632 44.2881 41.1077 44.5224 41.3228 44.6776ZM6.22723 41.7279C6.17304 41.5963 6.11999 41.4643 6.0681 41.3318C6.02052 41.209 5.94916 41.0969 5.85814 41.0018C5.76712 40.9067 5.65821 40.8305 5.53768 40.7776C5.41714 40.7247 5.28735 40.6961 5.15574 40.6935C5.02413 40.6908 4.89329 40.7142 4.77074 40.7623C4.64818 40.8103 4.53632 40.8821 4.44157 40.9735C4.34682 41.0648 4.27104 41.174 4.21858 41.2948C4.16612 41.4155 4.13801 41.5454 4.13587 41.677C4.13373 41.8086 4.1576 41.9394 4.20611 42.0618C4.26223 42.205 4.31948 42.3473 4.37773 42.4889C4.58698 42.9974 5.16998 43.2441 5.68298 43.0331C5.92823 42.9322 6.12335 42.738 6.22542 42.4932C6.32748 42.2484 6.32814 41.9731 6.22723 41.7279Z" fill="#6BA6FF"/>
<path d="M56.8524 1.59634C54.1473 2.09934 49.362 -1.21415 45.2382 3.33621C43.0467 5.75433 42.5024 8.77808 43.7657 11.2113C43.3605 11.9404 43.029 12.7081 42.7762 13.5029C38.5008 10.3883 33.3955 8.7057 28.0523 8.7057C14.507 8.7057 3.53611 19.5261 2.88586 32.648L1.62912 31.6307C1.52706 31.548 1.40972 31.4863 1.2838 31.449C1.15788 31.4117 1.02584 31.3996 0.895243 31.4134C0.764641 31.4271 0.638029 31.4665 0.52264 31.5292C0.40725 31.5919 0.305344 31.6767 0.222743 31.7788C0.0558858 31.9849 -0.02226 32.2489 0.0054949 32.5126C0.0332498 32.7764 0.164632 33.0183 0.370743 33.1852L3.22549 35.4962C3.40351 35.6403 3.62562 35.7189 3.85467 35.7189C4.08373 35.7189 4.30584 35.6403 4.48386 35.4962L7.3386 33.1852C7.54403 33.0181 7.6748 32.7763 7.70221 32.5129C7.72963 32.2495 7.65145 31.986 7.48484 31.7802C7.31823 31.5744 7.07678 31.443 6.81345 31.415C6.55013 31.387 6.28645 31.4645 6.08023 31.6307L4.89248 32.5922C5.57473 20.4087 15.7011 10.7057 28.0522 10.7057C40.7998 10.7058 51.2498 21.0739 51.2498 33.9034C51.2498 47.0694 40.02 57.101 28.0629 57.101C20.1796 57.101 12.5396 52.6454 8.12935 45.4695C7.98865 45.2475 7.76622 45.0898 7.51016 45.0306C7.25411 44.9713 6.98502 45.0153 6.76111 45.1529C6.5372 45.2905 6.37646 45.5107 6.31368 45.766C6.25089 46.0212 6.2911 46.2908 6.4256 46.5166C11.1431 54.1925 19.3055 59.0989 28.0518 59.101C34.5107 59.1026 40.8498 56.3974 45.5325 51.8754C56.4134 41.3684 55.5465 24.4484 44.4737 14.8512C45.4735 10.7471 48.6339 7.8822 52.6599 6.86671C52.7872 6.83458 52.907 6.77769 53.0123 6.69929C53.1177 6.62088 53.2065 6.52249 53.2739 6.40974C53.3412 6.29698 53.3856 6.17207 53.4047 6.04214C53.4237 5.9122 53.417 5.77979 53.3849 5.65246C53.2499 5.11708 52.7068 4.79171 52.1706 4.92746C50.4816 5.35346 47.4904 6.45796 45.1613 9.19795C44.8844 7.73758 45.4228 6.11083 46.7203 4.67921C50.012 1.04659 53.7893 4.20146 57.218 3.56259C57.6351 3.48446 58.0255 3.84309 57.9986 4.27259C57.7886 7.62545 56.1295 10.4688 53.6684 11.6933C52.4609 12.2941 51.2773 12.6218 50.1505 12.6677C49.8855 12.6785 49.6357 12.7941 49.4559 12.9891C49.2762 13.1841 49.1813 13.4425 49.192 13.7074C49.2145 14.2624 49.6851 14.6901 50.2318 14.6659C51.6418 14.6087 53.0978 14.2108 54.5591 13.4838C57.6574 11.9424 59.7401 8.4607 59.9945 4.39759C60.1029 2.66771 58.5511 1.28122 56.8524 1.59634Z" fill="#6BA6FF"/>
</g>
<defs>
<clipPath id="clip0_2318_1176">
<rect width="60" height="60" fill="white"/>
</clipPath>
</defs>
</svg>
