<svg width="60" height="60" viewBox="0 0 60 60" fill="none" xmlns="http://www.w3.org/2000/svg">
<g clip-path="url(#clip0_2318_399)">
<path d="M59.0819 31.3622L55.4025 25.9716C54.9187 25.2622 54.2689 24.6817 53.5096 24.2806C52.7504 23.8796 51.9046 23.6701 51.0459 23.6704H43.9121C43.6323 23.6704 43.364 23.7815 43.1661 23.9793C42.9683 24.1772 42.8571 24.4455 42.8571 24.7253C42.8571 25.0051 42.9683 25.2734 43.1661 25.4713C43.364 25.6691 43.6323 25.7802 43.9121 25.7802H45.3626V30.3956C45.3626 32.7224 47.2556 34.6154 49.5824 34.6154H52.7473C53.027 34.6154 53.2954 34.5043 53.4932 34.3064C53.6911 34.1086 53.8022 33.8403 53.8022 33.5605C53.8022 33.2807 53.6911 33.0123 53.4932 32.8145C53.2954 32.6167 53.027 32.5055 52.7473 32.5055H49.5824C48.4191 32.5055 47.4725 31.559 47.4725 30.3956V25.7802H51.0459C51.5611 25.78 52.0686 25.9057 52.5242 26.1464C52.9798 26.387 53.3696 26.7354 53.6599 27.161L57.3392 32.5515C57.6988 33.077 57.8908 33.6991 57.8901 34.3358V43.7143H56.35C55.8462 40.7247 53.2407 38.4396 50.1099 38.4396C46.6196 38.4396 43.7802 41.2791 43.7802 44.7693C43.7802 48.2594 46.6196 51.0989 50.1099 51.0989C53.2406 51.0989 55.8462 48.8138 56.35 45.8242H58.9451C59.2248 45.8242 59.4932 45.7131 59.691 45.5152C59.8889 45.3174 60 45.049 60 44.7693V34.3358C60.0013 33.2747 59.6812 32.238 59.0819 31.3622ZM50.1099 48.989C47.7831 48.989 45.8901 47.0961 45.8901 44.7693C45.8901 42.4424 47.7831 40.5495 50.1099 40.5495C52.4367 40.5495 54.3297 42.4424 54.3297 44.7693C54.3297 47.0961 52.4367 48.989 50.1099 48.989ZM41.011 13.1209V39.2308C41.011 39.5106 40.8998 39.7789 40.702 39.9768C40.5042 40.1746 40.2358 40.2857 39.956 40.2857C39.6763 40.2857 39.4079 40.1746 39.2101 39.9768C39.0122 39.7789 38.9011 39.5106 38.9011 39.2308V13.1209C38.9011 11.9576 37.9546 11.011 36.7912 11.011H11.3407C10.1773 11.011 9.23077 11.9576 9.23077 13.1209V14.5715H13.5824C13.8622 14.5715 14.1305 14.6826 14.3284 14.8804C14.5262 15.0783 14.6374 15.3466 14.6374 15.6264C14.6374 15.9062 14.5262 16.1745 14.3284 16.3724C14.1305 16.5702 13.8622 16.6813 13.5824 16.6813H1.05495C0.775156 16.6813 0.506827 16.5702 0.308986 16.3724C0.111146 16.1745 0 15.9062 0 15.6264C0 15.3466 0.111146 15.0783 0.308986 14.8804C0.506827 14.6826 0.775156 14.5715 1.05495 14.5715H7.12088V13.1209C7.12088 10.7941 9.01385 8.90112 11.3407 8.90112H36.7912C39.118 8.90112 41.011 10.7941 41.011 13.1209ZM37.7143 43.7143H24.7017C24.1978 40.7247 21.5924 38.4396 18.4615 38.4396C14.9713 38.4396 12.1319 41.2791 12.1319 44.7693C12.1319 48.2594 14.9713 51.0989 18.4615 51.0989C21.5922 51.0989 24.1978 48.8138 24.7017 45.8242H37.7143C37.9941 45.8242 38.2624 45.7131 38.4602 45.5152C38.6581 45.3174 38.7692 45.049 38.7692 44.7693C38.7692 44.4895 38.6581 44.2211 38.4602 44.0233C38.2624 43.8255 37.9941 43.7143 37.7143 43.7143ZM18.4615 48.989C16.1347 48.989 14.2418 47.0961 14.2418 44.7693C14.2418 42.4424 16.1347 40.5495 18.4615 40.5495C20.7884 40.5495 22.6813 42.4424 22.6813 44.7693C22.6813 47.0961 20.7884 48.989 18.4615 48.989ZM3.95604 22.2198C3.95604 21.94 4.06719 21.6717 4.26503 21.4738C4.46287 21.276 4.7312 21.1649 5.01099 21.1649H13.5824C13.8622 21.1649 14.1305 21.276 14.3284 21.4738C14.5262 21.6717 14.6374 21.94 14.6374 22.2198C14.6374 22.4996 14.5262 22.7679 14.3284 22.9658C14.1305 23.1636 13.8622 23.2747 13.5824 23.2747H5.01099C4.7312 23.2747 4.46287 23.1636 4.26503 22.9658C4.06719 22.7679 3.95604 22.4996 3.95604 22.2198ZM14.1099 29.8682H9.67029C9.3905 29.8682 9.12217 29.757 8.92433 29.5592C8.72649 29.3613 8.61534 29.093 8.61534 28.8132C8.61534 28.5334 8.72649 28.2651 8.92433 28.0673C9.12217 27.8694 9.3905 27.7583 9.67029 27.7583H14.1099C14.3897 27.7583 14.658 27.8694 14.8558 28.0673C15.0537 28.2651 15.1648 28.5334 15.1648 28.8132C15.1648 29.093 15.0537 29.3613 14.8558 29.5592C14.658 29.757 14.3897 29.8682 14.1099 29.8682ZM2.37363 27.7583H4.044C4.32379 27.7583 4.59212 27.8694 4.78996 28.0673C4.9878 28.2651 5.09895 28.5334 5.09895 28.8132C5.09895 29.093 4.9878 29.3613 4.78996 29.5592C4.59212 29.757 4.32379 29.8682 4.044 29.8682H2.37363C2.09384 29.8682 1.82551 29.757 1.62767 29.5592C1.42983 29.3613 1.31868 29.093 1.31868 28.8132C1.31868 28.5334 1.42983 28.2651 1.62767 28.0673C1.82551 27.8694 2.09384 27.7583 2.37363 27.7583ZM9.23077 35.4066V44.7693C9.23077 45.049 9.11962 45.3174 8.92178 45.5152C8.72394 45.7131 8.45561 45.8242 8.17582 45.8242C7.89604 45.8242 7.62771 45.7131 7.42987 45.5152C7.23203 45.3174 7.12088 45.049 7.12088 44.7693V36.4616H1.05495C0.775156 36.4616 0.506827 36.3504 0.308986 36.1526C0.111146 35.9547 0 35.6864 0 35.4066C0 35.1268 0.111146 34.8585 0.308986 34.6607C0.506827 34.4628 0.775156 34.3517 1.05495 34.3517H8.17582C8.45561 34.3517 8.72394 34.4628 8.92178 34.6607C9.11962 34.8585 9.23077 35.1268 9.23077 35.4066ZM16.7473 34.3517C17.027 34.3517 17.2954 34.4628 17.4932 34.6607C17.6911 34.8585 17.8022 35.1268 17.8022 35.4066C17.8022 35.6864 17.6911 35.9547 17.4932 36.1526C17.2954 36.3504 17.027 36.4616 16.7473 36.4616H13.7143C13.4345 36.4616 13.1662 36.3504 12.9683 36.1526C12.7705 35.9547 12.6593 35.6864 12.6593 35.4066C12.6593 35.1268 12.7705 34.8585 12.9683 34.6607C13.1662 34.4628 13.4345 34.3517 13.7143 34.3517H16.7473ZM17.2747 22.2198C17.2747 21.94 17.3859 21.6717 17.5837 21.4738C17.7816 21.276 18.0499 21.1649 18.3297 21.1649H19.9121C20.1919 21.1649 20.4602 21.276 20.658 21.4738C20.8559 21.6717 20.967 21.94 20.967 22.2198C20.967 22.4996 20.8559 22.7679 20.658 22.9658C20.4602 23.1636 20.1919 23.2747 19.9121 23.2747H18.3297C18.0499 23.2747 17.7816 23.1636 17.5837 22.9658C17.3859 22.7679 17.2747 22.4996 17.2747 22.2198Z" fill="#6BA6FF"/>
</g>
<defs>
<clipPath id="clip0_2318_399">
<rect width="60" height="60" fill="white"/>
</clipPath>
</defs>
</svg>
