<svg width="60" height="60" viewBox="0 0 60 60" fill="none" xmlns="http://www.w3.org/2000/svg">
<path d="M55.4607 11.7629L53.3914 13.8323C53.2976 13.9249 53.223 14.0352 53.172 14.1568C53.121 14.2783 53.0945 14.4088 53.0941 14.5406C53.0937 14.6724 53.1194 14.803 53.1697 14.9249C53.2199 15.0468 53.2938 15.1575 53.387 15.2508C53.4802 15.344 53.5909 15.4179 53.7128 15.4681C53.8347 15.5184 53.9653 15.5441 54.0971 15.5437C54.2289 15.5433 54.3594 15.5168 54.481 15.4658C54.6025 15.4148 54.7128 15.3403 54.8055 15.2465L56.8749 13.1771C57.305 12.7469 58.0246 13.0661 57.9991 13.6594C57.878 16.4811 56.7086 19.1379 54.7062 21.1403C51.1302 24.7162 47.4492 24.8955 44.9905 24.416C43.5164 24.1286 41.9935 24.5992 40.9175 25.6751L23.2928 43.3C22.3158 44.277 21.8353 45.6096 21.9747 46.9561C22.2864 49.9702 21.2382 52.9259 19.0989 55.0653C15.2187 58.9456 8.8887 58.9628 4.98833 55.1036C1.08209 51.2384 0.982841 45.0911 4.76246 41.1086C6.90145 38.8547 9.90245 37.734 12.9948 38.0341C14.3904 38.1692 15.7452 37.6922 16.7126 36.725L34.3383 19.0991C35.4115 18.0259 35.8818 16.5011 35.5961 15.0205C35.1355 12.6331 35.2993 9.04215 38.6954 5.49228C40.7184 3.37766 43.436 2.14329 46.3479 2.01629C46.948 1.99092 47.2704 2.70779 46.839 3.13904L42.5165 7.46153C41.5874 8.39053 41.2255 9.75327 41.5721 11.0178L42.6209 14.8443C42.9593 16.0788 43.9363 17.0558 45.1707 17.3943L48.9972 18.443C49.253 18.5131 49.5262 18.4787 49.7566 18.3474C49.9871 18.2161 50.1559 17.9987 50.226 17.7429C50.2961 17.4871 50.2617 17.2139 50.1304 16.9835C49.9991 16.7531 49.7817 16.5842 49.5259 16.5141L45.6994 15.4654C45.4247 15.3894 45.1745 15.2435 44.973 15.042C44.7715 14.8405 44.6256 14.5903 44.5496 14.3156L43.5009 10.4891C43.3439 9.91615 43.5085 9.2979 43.9306 8.87578L48.2531 4.55329C49.9672 2.83929 48.6844 -0.0875803 46.2606 0.0181695C42.8311 0.167669 39.6313 1.62079 37.2501 4.10966C34.1398 7.3609 32.8549 11.3703 33.6324 15.3994C33.7921 16.2273 33.5274 17.0816 32.9242 17.6849L15.2983 35.3105C14.7552 35.8535 13.9857 36.1206 13.1878 36.0432C5.94696 35.3416 -0.112782 41.1408 0.00159308 48.1829C0.106968 54.6691 5.40733 59.9848 12.0236 59.9847C19.1544 59.9845 24.6977 53.8422 23.964 46.7501C23.887 46.0053 24.1578 45.2632 24.707 44.714L42.3319 27.0891C42.9366 26.4844 43.7875 26.2187 44.6079 26.3787C48.757 27.1881 52.8452 25.8296 56.1206 22.5542C58.478 20.1969 59.8548 17.0684 59.9975 13.7449C60.101 11.3293 57.1736 10.0498 55.4607 11.7629Z" fill="#6BA6FF"/>
<path d="M34.7672 23.8334L21.0967 37.5038C21.0038 37.5967 20.9302 37.7069 20.8799 37.8282C20.8296 37.9496 20.8037 38.0796 20.8037 38.2109C20.8037 38.3422 20.8296 38.4723 20.8799 38.5936C20.9302 38.7149 21.0038 38.8251 21.0967 38.918C21.1895 39.0108 21.2998 39.0845 21.4211 39.1347C21.5424 39.185 21.6724 39.2109 21.8038 39.2109C21.9351 39.2109 22.0651 39.185 22.1864 39.1347C22.3077 39.0845 22.418 39.0108 22.5108 38.918L36.1813 25.2476C36.2742 25.1548 36.3478 25.0445 36.3981 24.9232C36.4484 24.8019 36.4743 24.6718 36.4743 24.5405C36.4743 24.4092 36.4484 24.2791 36.3981 24.1578C36.3478 24.0365 36.2742 23.9262 36.1813 23.8334C35.9938 23.6459 35.7394 23.5405 35.4742 23.5405C35.209 23.5405 34.9547 23.6459 34.7672 23.8334ZM14.2615 45.7532C14.449 45.9407 14.7033 46.0461 14.9685 46.0461C15.2337 46.0461 15.4881 45.9407 15.6756 45.7532L16.6891 44.7397C16.8766 44.5523 16.9819 44.298 16.982 44.0329C16.9821 43.7678 16.8768 43.5135 16.6895 43.326C13.111 39.7432 7.0026 41.3457 5.63086 46.1903C5.61126 46.2417 5.59694 46.2949 5.58811 46.3492C4.33961 51.2164 8.7381 55.6722 13.6313 54.4202C13.7164 54.4088 13.7994 54.3851 13.8776 54.3498C16.1233 53.6861 17.8112 51.9589 18.4065 49.6959C18.4737 49.4402 18.4369 49.1682 18.3042 48.9395C18.1714 48.7108 17.9535 48.544 17.6981 48.4756L16.305 48.1023C16.0488 48.0338 15.7759 48.0697 15.5462 48.2023C15.3165 48.3349 15.1489 48.5533 15.0802 48.8094C15.0462 48.9363 15.0376 49.0686 15.0547 49.1988C15.0718 49.329 15.1145 49.4545 15.1801 49.5683C15.2458 49.682 15.3332 49.7817 15.4374 49.8616C15.5416 49.9416 15.6605 50.0002 15.7873 50.0342L16.1163 50.1223C15.685 50.9687 15.0051 51.6519 14.1585 52.0927L14.0677 51.7538C13.9991 51.4976 13.8315 51.2792 13.6018 51.1466C13.3721 51.014 13.0991 50.9781 12.843 51.0467C12.5868 51.1153 12.3684 51.2829 12.2358 51.5126C12.1031 51.7423 12.0672 52.0153 12.1358 52.2714L12.2298 52.6223C11.2736 52.6772 10.3246 52.4277 9.51897 51.9098L9.78672 51.6421C9.8796 51.5492 9.95328 51.439 10.0035 51.3176C10.0538 51.1963 10.0797 51.0663 10.0797 50.9349C10.0797 50.8036 10.0538 50.6736 10.0035 50.5522C9.95328 50.4309 9.8796 50.3207 9.78672 50.2278C9.69388 50.1349 9.58365 50.0613 9.46234 50.011C9.34102 49.9607 9.21098 49.9349 9.07966 49.9349C8.94834 49.9349 8.81831 49.9607 8.69699 50.011C8.57567 50.0613 8.46544 50.1349 8.3726 50.2278L8.10385 50.4966C7.58784 49.6883 7.33572 48.7397 7.38235 47.7819C7.71773 47.8718 7.83023 47.9129 8.0026 47.9129C8.24529 47.913 8.47971 47.8248 8.66217 47.6648C8.84462 47.5047 8.96265 47.2838 8.99426 47.0432C9.02586 46.8026 8.96889 46.5587 8.83395 46.3569C8.69901 46.1552 8.49532 46.0095 8.26085 45.9468L7.90623 45.8518C8.35024 45.0093 9.04274 44.3239 9.88972 43.8885L9.98047 44.2272C10.0145 44.3541 10.0731 44.473 10.153 44.5772C10.233 44.6813 10.3327 44.7688 10.4464 44.8344C10.5601 44.9001 10.6857 44.9427 10.8159 44.9598C10.9461 44.977 11.0784 44.9683 11.2052 44.9343C11.3321 44.9003 11.451 44.8417 11.5552 44.7618C11.6594 44.6818 11.7468 44.5821 11.8124 44.4684C11.8781 44.3547 11.9207 44.2291 11.9379 44.0989C11.955 43.9687 11.9463 43.8364 11.9123 43.7096L11.8252 43.3845C12.7975 43.3486 13.7143 43.6082 14.4923 44.108L14.2613 44.339C14.0739 44.5265 13.9686 44.7809 13.9686 45.0461C13.9686 45.3113 14.074 45.5657 14.2615 45.7532Z" fill="#6BA6FF"/>
</svg>
