<svg width="56" height="60" viewBox="0 0 56 60" fill="none" xmlns="http://www.w3.org/2000/svg">
<path d="M28.2479 36.2374C27.9826 36.2374 27.7283 36.3428 27.5408 36.5303C27.3532 36.7179 27.2479 36.9722 27.2479 37.2375V49.3873C27.2479 51.0348 25.9076 52.3749 24.2602 52.3749H11.9853C10.3379 52.3749 8.99759 51.0347 8.99759 49.3873V37.2375C8.99759 35.5899 10.3379 34.2498 11.9853 34.2498H21.7478C22.013 34.2498 22.2674 34.1444 22.4549 33.9569C22.6424 33.7693 22.7478 33.515 22.7478 33.2498C22.7478 32.9846 22.6424 32.7302 22.4549 32.5427C22.2674 32.3551 22.013 32.2498 21.7478 32.2498H11.9853C9.23509 32.2498 6.99756 34.4872 6.99756 37.2375V49.3873C6.99756 52.1375 9.23497 54.375 11.9853 54.375H24.2602C27.0103 54.375 29.2479 52.1375 29.2479 49.3873V37.2375C29.2479 36.9722 29.1425 36.7179 28.955 36.5303C28.7674 36.3428 28.5131 36.2374 28.2479 36.2374Z" fill="#6BA6FF"/>
<path d="M14.7848 48.3315C15.2504 48.6327 15.8688 48.4968 16.1675 48.0348L21.5516 39.7069C21.6956 39.4842 21.7452 39.2134 21.6896 38.954C21.6339 38.6947 21.4775 38.4681 21.2548 38.3241C21.032 38.1801 20.7612 38.1304 20.5019 38.1861C20.2426 38.2418 20.016 38.3982 19.872 38.6209L14.4879 46.9488C14.4166 47.0591 14.3677 47.1823 14.344 47.3115C14.3203 47.4407 14.3223 47.5732 14.3499 47.7016C14.3775 47.83 14.4301 47.9518 14.5047 48.0598C14.5793 48.1679 14.6745 48.2602 14.7848 48.3315Z" fill="#6BA6FF"/>
<path d="M54.9596 47.016L42.1269 10.388C41.7557 9.3267 40.8306 8.57169 39.7119 8.41794L24.2992 6.29915C23.7516 6.22415 23.2466 6.60666 23.1716 7.15417C23.1357 7.4169 23.2056 7.68314 23.3659 7.89435C23.5263 8.10555 23.7639 8.24443 24.0266 8.28043L39.4406 10.3992C39.8106 10.4505 40.1169 10.6992 40.2394 11.0492L53.0721 47.6773C53.2533 48.1923 52.9758 48.7585 52.4558 48.941L35.3731 54.9261V29.7607L36.9468 29.2095C38.4895 28.6687 40.2005 29.468 40.7544 31.0408L44.7707 42.5072C45.3157 44.0622 44.4944 45.771 42.9394 46.3147L39.8256 47.406C39.7017 47.4494 39.5876 47.5167 39.4898 47.6042C39.3919 47.6917 39.3123 47.7977 39.2554 47.916C39.1985 48.0343 39.1655 48.1626 39.1583 48.2937C39.151 48.4247 39.1696 48.5559 39.2131 48.6798C39.2564 48.8038 39.3236 48.918 39.4111 49.016C39.4985 49.114 39.6044 49.1937 39.7227 49.2508C39.841 49.3078 39.9694 49.3409 40.1006 49.3482C40.2317 49.3556 40.363 49.337 40.4869 49.2935L43.6007 48.2023C46.1957 47.2935 47.5682 44.4422 46.6582 41.8459L42.6419 30.3795C41.7279 27.7746 38.8814 26.4106 36.2843 27.322L35.3731 27.6407V18.2006C35.3731 17.0756 34.7493 16.0568 33.7455 15.5418L19.4953 8.23918C19.0703 8.02227 18.6 7.90917 18.1228 7.90917C17.6457 7.90917 17.1753 8.02227 16.7503 8.23918L15.2265 9.02045C15.9004 3.08098 20.5876 -0.180064 24.0391 3.64162C24.2182 3.83333 24.4654 3.94703 24.7275 3.95823C24.9895 3.96943 25.2455 3.87724 25.4403 3.7015C25.635 3.52577 25.753 3.28056 25.7686 3.01871C25.7843 2.75686 25.6965 2.49933 25.5242 2.3016C22.6046 -0.933825 18.0951 -0.866074 15.2578 3.19286C13.9552 5.05664 13.214 7.49292 13.1515 10.0842L2.50008 15.5418C1.49632 16.0568 0.872559 17.0756 0.872559 18.2006V57.0111C0.872559 58.6587 2.21883 59.9999 3.8726 59.9999H32.373C34.0155 59.9999 35.3531 58.6774 35.3718 57.0461L53.1171 50.8286C54.6783 50.2823 55.5046 48.571 54.9596 47.016ZM33.373 57.0111C33.373 57.5562 32.9243 57.9999 32.373 57.9999H3.8726C3.32134 57.9999 2.87259 57.5562 2.87259 57.0111V18.2006C2.87259 17.8293 3.07884 17.4931 3.4126 17.3218L13.2615 12.2742C13.4427 13.6855 13.829 15.0143 14.3878 16.188C13.4277 17.1631 12.8727 18.4881 12.8727 19.8744C12.8727 22.7694 15.2278 25.1244 18.1228 25.1244C21.0179 25.1244 23.3729 22.7694 23.3729 19.8744C23.3729 18.4393 22.8041 17.0981 21.7729 16.1005C21.3754 15.7168 20.7428 15.7268 20.3591 16.1243C19.9741 16.5206 19.9853 17.1543 20.3816 17.5381C21.0216 18.1556 21.3729 18.9856 21.3729 19.8744C21.3729 21.6669 19.9153 23.1244 18.1228 23.1244C15.4865 23.1244 13.9524 20.1386 15.4765 17.9931C16.1015 18.8206 16.8353 19.5081 17.6578 20.0056C17.7702 20.0737 17.8948 20.119 18.0247 20.1388C18.1545 20.1587 18.287 20.1528 18.4146 20.1215C18.5422 20.0901 18.6623 20.034 18.7682 19.9562C18.8741 19.8784 18.9636 19.7805 19.0316 19.6681C19.0996 19.5557 19.1449 19.4311 19.1647 19.3012C19.1846 19.1714 19.1787 19.0389 19.1473 18.9113C19.116 18.7837 19.0598 18.6636 18.9821 18.5577C18.9043 18.4519 18.8064 18.3624 18.6941 18.2943C16.7478 17.1168 15.389 14.3693 15.1753 11.2942L17.6628 10.0192C17.8051 9.94613 17.9628 9.90802 18.1228 9.90802C18.2828 9.90802 18.4405 9.94613 18.5828 10.0192L32.833 17.3218C33.1668 17.4931 33.373 17.8293 33.373 18.2006V57.0111Z" fill="#6BA6FF"/>
<path d="M14.6226 41.8748C15.451 41.8748 16.1226 41.2032 16.1226 40.3748C16.1226 39.5463 15.451 38.8748 14.6226 38.8748C13.7941 38.8748 13.1226 39.5463 13.1226 40.3748C13.1226 41.2032 13.7941 41.8748 14.6226 41.8748Z" fill="#6BA6FF"/>
<path d="M21.7481 47.4998C22.5765 47.4998 23.2481 46.8282 23.2481 45.9998C23.2481 45.1713 22.5765 44.4998 21.7481 44.4998C20.9196 44.4998 20.248 45.1713 20.248 45.9998C20.248 46.8282 20.9196 47.4998 21.7481 47.4998Z" fill="#6BA6FF"/>
</svg>
